<svg style="filter:invert(1)" height="485pt" viewBox="0 0 485 485" width="485pt" xmlns="http://www.w3.org/2000/svg"><path d="m204.234375 334.300781c8.257813-2.167969 15.628906-5.5 22.042969-10.046875 6.367187-4.503906 11.535156-10.34375 15.328125-17.546875 3.757812-7.113281 5.640625-15.574219 5.640625-25.398437 0-12.121094-2.882813-22.460938-8.765625-31.101563-5.859375-8.582031-14.6875-14.617187-26.613281-18.042969 8.757812-4.144531 15.3125-9.476562 19.773437-15.980468 4.425781-6.511719 6.636719-14.660156 6.636719-24.414063 0-9.015625-1.480469-16.644531-4.433594-22.734375-3.023438-6.183594-7.25-11.089844-12.644531-14.78125-5.480469-3.6875-11.972657-6.378906-19.570313-7.992187-7.648437-1.65625-16.011718-2.457031-25.277344-2.457031h-91.351562v193.757812h93.914062c8.679688 0 17.160157-1.089844 25.320313-3.261719zm-76.570313-157.492187h39.914063c3.773437 0 7.457031.269531 10.972656.957031 3.578125.613281 6.660157 1.753906 9.390625 3.402344 2.75 1.582031 4.929688 3.847656 6.574219 6.738281 1.589844 2.890625 2.378906 6.617188 2.378906 11.125 0 8.121094-2.378906 14.039062-7.285156 17.621094-4.957031 3.640625-11.21875 5.433594-18.773437 5.433594h-43.171876zm0 127.753906v-53.355469h46.378907c9.183593 0 16.648437 2.113281 22.246093 6.359375 5.589844 4.304688 8.398438 11.394532 8.398438 21.382813 0 5.09375-.824219 9.3125-2.550781 12.558593-1.714844 3.273438-4.078125 5.851563-6.933594 7.730469-2.851563 1.953125-6.234375 3.277344-10.050781 4.109375-3.757813.839844-7.753906 1.214844-11.964844 1.214844zm0 0"/><path d="m279.109375 320.796875c6.273437 6.515625 13.730469 11.519531 22.65625 15.085937 8.929687 3.523438 18.875 5.3125 29.925781 5.3125 15.855469 0 29.464844-3.632812 40.625-10.921874 11.285156-7.257813 19.5625-19.3125 25.015625-36.203126h-33.933593c-1.316407 4.34375-4.714844 8.527344-10.296876 12.4375-5.632812 3.917969-12.351562 5.882813-20.125 5.882813-10.804687 0-19.148437-2.835937-24.917968-8.472656-5.789063-5.636719-9.539063-16.136719-9.539063-27.226563h101.234375c.726563-10.882812-.15625-21.28125-2.679687-31.234375-2.542969-9.96875-6.609375-18.855469-12.328125-26.628906-5.71875-7.78125-13-14.003906-21.878906-18.589844-8.910157-4.652343-19.308594-6.9375-31.175782-6.9375-10.75 0-20.457031 1.910157-29.257812 5.710938-8.800782 3.808593-16.359375 9.027343-22.734375 15.644531-6.359375 6.578125-11.191407 14.417969-14.691407 23.507812-3.429687 9.058594-5.183593 18.855469-5.183593 29.347657 0 10.847656 1.691406 20.859375 5.039062 29.90625 3.382813 9.09375 8.132813 16.832031 14.246094 23.378906zm21.167969-77.636719c.984375-3.503906 2.679687-6.777344 5.167968-9.882812 2.5-3.054688 5.769532-5.648438 9.753907-7.730469 4.082031-2.113281 9.175781-3.148437 15.332031-3.148437 9.464844 0 17.226562 2.742187 21.800781 7.808593 4.597657 5.109375 7.960938 12.371094 8.882813 22.199219h-62.699219c.179687-2.738281.769531-5.835938 1.761719-9.246094zm0 0"/><path d="m290.636719 156.800781h78.539062v19.121094h-78.539062zm0 0"/><path d="m0 0v485h485v-485zm455 455h-425v-425h425zm0 0"/></svg>