<svg height="485pt" viewBox="0 0 485 485" width="485pt" xmlns="http://www.w3.org/2000/svg"><path d="m176.914062 400h126.507813c51.601563 0 96.382813-43.382812 96.382813-96.382812v-75.632813c0-14.050781-4.09375-23.539063-21.191407-23.539063h-13.808593c-13.554688 0-21.558594-8.460937-21.558594-18.375v-8.835937c0-44.988281-49.09375-92.234375-91.394532-92.234375h-66.609374c-55.964844 0-100.046876 44.082031-100.046876 100.046875v119.5c0 52.542969 45.226563 95.453125 91.71875 95.453125zm8.328126-232.199219h57.175781c10.078125 0 18.324219 8.246094 18.324219 18.324219 0 10.035156-8.300782 18.320312-18.324219 18.320312h-57.175781c-10.09375 0-18.335938-8.242187-18.335938-18.320312 0-10.035156 8.285156-18.324219 18.335938-18.324219zm0 113.925781h113.597656c10.09375 0 18.335937 8.242188 18.335937 18.335938 0 10.023438-8.3125 18.320312-18.335937 18.320312h-113.597656c-10.078126 0-18.335938-8.242187-18.335938-18.320312 0-10.039062 8.285156-18.335938 18.335938-18.335938zm0 0"/><path d="m0 0v485h485v-485zm455 455h-425v-425h425zm0 0"/></svg>