<svg height="485pt" viewBox="0 0 485 485" width="485pt" xmlns="http://www.w3.org/2000/svg"><path d="m0 0v485h485v-485zm455 455h-425v-425h425zm0 0"/><path d="m160.203125 400c28.820313 0 52.183594-23.363281 52.183594-52.195312v-59.230469l71.257812 91.335937c17.726563 22.722656 50.519531 26.769532 73.242188 9.042969 22.734375-17.730469 26.78125-50.519531 9.050781-73.246094l-62.203125-79.738281 48.445313-65.082031c17.199218-23.132813 12.402343-55.824219-10.71875-73.03125-23.117188-17.199219-55.8125-12.40625-73.019532 10.714843l-56.054687 75.316407v-46.695313c0-28.832031-23.363281-52.191406-52.183594-52.191406s-52.183594 23.359375-52.183594 52.191406v210.609375c0 28.835938 23.363281 52.199219 52.183594 52.199219zm0 0"/></svg>