<svg height="485pt" viewBox="0 0 485 485" width="485pt" xmlns="http://www.w3.org/2000/svg"><path d="m0 0v485h485v-485zm455 455h-425v-425h425zm0 0"/><path d="m155.597656 312.5c38.980469 0 70.582032-31.34375 70.582032-69.984375 0-38.671875-31.601563-70.015625-70.582032-70.015625-38.996094 0-70.597656 31.34375-70.597656 70.015625 0 38.640625 31.601562 69.984375 70.597656 69.984375zm0 0"/><path d="m329.402344 312.5c38.996094 0 70.597656-31.34375 70.597656-69.984375 0-38.671875-31.601562-70.015625-70.597656-70.015625-38.980469 0-70.582032 31.34375-70.582032 70.015625 0 38.640625 31.597657 69.984375 70.582032 69.984375zm0 0"/></svg>