<svg height="485pt" viewBox="0 0 485 485" width="485pt" xmlns="http://www.w3.org/2000/svg"><path d="m180.308594 324.386719c0 12.539062 1.785156 23.324219 5.453125 32.445312 2.601562 7.207031 8.027343 14.296875 16.207031 21.660157 6.269531 6.269531 15.265625 11.691406 26.992188 16.207031 14.417968 3.542969 26.960937 5.300781 37.867187 5.300781 12.660156 0 24.355469-1.304688 35.140625-4 12.664062-2.726562 24.84375-7.238281 36.566406-13.511719v-50.042969c-16.207031 10.875-32.082031 16.207032-47.351562 16.207032-7.207032 0-15.265625-2.242188-24.355469-6.632813-5.332031-3.667969-8.542969-7.695312-9.480469-12.179687-2.726562-5.453125-4.363281-17.148438-4.363281-35.261719v-79.765625h72.765625v-48.503906h-72.765625v-81.308594h-42.957031c-3.574219 18.933594-7.242188 32.414062-10.785156 40.59375-4.484376 9.9375-11.722657 18.933594-21.660157 26.960938-9.9375 8.179687-20.234375 13.96875-31.109375 17.664062v44.59375h33.835938zm0 0"/><path d="m0 0v485h485v-485zm455 455h-425v-425h425zm0 0"/></svg>